<?xml version="1.0" encoding="UTF-8" standalone="no"?>
<!DOCTYPE svg PUBLIC "-//W3C//DTD SVG 1.1//EN" "http://www.w3.org/Graphics/SVG/1.1/DTD/svg11.dtd">
<svg width="100%" height="100%" viewBox="0 0 700 700" version="1.1" xmlns="http://www.w3.org/2000/svg" xmlns:xlink="http://www.w3.org/1999/xlink" xml:space="preserve" xmlns:serif="http://www.serif.com/" style="fill-rule:evenodd;clip-rule:evenodd;stroke-linejoin:round;stroke-miterlimit:2;">
    <g transform="matrix(1.49546,0,0,1.49546,-173.404,-68.7309)">
        <path d="M440.42,92.812C434.35,92.679 428.463,94.918 424.014,99.054L243.814,262.434C238.931,266.86 236.146,273.141 236.146,279.731C236.146,286.321 238.931,292.602 243.814,297.024L424.054,460.404C428.577,464.9 434.742,467.353 441.116,467.189C447.491,467.021 453.518,464.256 457.8,459.529C462.085,454.807 464.245,448.533 463.784,442.174C463.323,435.815 460.281,429.92 455.363,425.862L294.263,279.752L455.363,133.642C460.089,129.474 462.929,123.572 463.238,117.279C463.542,110.982 461.292,104.834 456.995,100.224C452.695,95.615 446.714,92.943 440.413,92.81L440.42,92.812Z" style="fill-rule:nonzero;"/>
    </g>
</svg>
