<?xml version="1.0" encoding="UTF-8" standalone="no"?>
<!DOCTYPE svg PUBLIC "-//W3C//DTD SVG 1.1//EN" "http://www.w3.org/Graphics/SVG/1.1/DTD/svg11.dtd">
<svg width="100%" height="100%" viewBox="0 0 700 700" version="1.1" xmlns="http://www.w3.org/2000/svg" xmlns:xlink="http://www.w3.org/1999/xlink" xml:space="preserve" xmlns:serif="http://www.serif.com/" style="fill-rule:evenodd;clip-rule:evenodd;stroke-linejoin:round;stroke-miterlimit:2;">
    <g transform="matrix(1.70978,0,0,1.70978,-248.424,-248.424)">
        <g transform="matrix(1,0,0,1,2.19,70.0025)">
            <path d="M476,350L297.5,350C293.125,350 289.625,347.375 288.75,343L253.75,185.5C252.875,182.875 253.75,180.25 255.5,178.5C257.25,176.75 259.875,175 262.5,175L520.62,175C525.87,175 529.37,178.5 529.37,183.75C529.37,189 525.87,192.5 520.62,192.5L273,192.5L304.5,332.5L476,332.5C480.375,332.5 483.875,329.875 484.75,325.5L509.25,217C510.125,212.625 515.375,209.125 519.75,210C524.125,210.875 527.625,216.125 526.75,220.5L502.25,329C498.75,341.25 488.25,350 476,350Z" style="fill-rule:nonzero;"/>
        </g>
        <g transform="matrix(1,0,0,1,2.19,70.0025)">
            <path d="M481.25,393.75L320.25,393.75C308,393.75 297.5,385 294.875,373.625L231,103.245C230.125,98.87 226.625,96.245 222.25,96.245L175,96.245C169.75,96.245 166.25,92.745 166.25,87.495C166.25,82.245 169.75,78.745 175,78.745L222.25,78.745C234.5,78.745 245,87.495 247.625,98.87L311.5,369.25C312.375,373.625 315.875,376.25 320.25,376.25L481.25,376.25C486.5,376.25 490,379.75 490,385C490,390.25 486.5,393.75 481.25,393.75Z" style="fill-rule:nonzero;"/>
        </g>
        <g transform="matrix(1,0,0,1,2.19,70.0025)">
            <path d="M341.25,481.25C316.75,481.25 297.5,462 297.5,437.5C297.5,413 316.75,393.75 341.25,393.75C365.75,393.75 385,413 385,437.5C385,462 365.75,481.25 341.25,481.25ZM341.25,411.25C326.375,411.25 315,422.625 315,437.5C315,452.375 326.375,463.75 341.25,463.75C356.125,463.75 367.5,452.375 367.5,437.5C367.5,422.625 356.125,411.25 341.25,411.25Z" style="fill-rule:nonzero;"/>
        </g>
        <g transform="matrix(1,0,0,1,2.19,70.0025)">
            <path d="M455,481.25C430.5,481.25 411.25,462 411.25,437.5C411.25,413 430.5,393.75 455,393.75C479.5,393.75 498.75,413 498.75,437.5C498.75,462 479.5,481.25 455,481.25ZM455,411.25C440.125,411.25 428.75,422.625 428.75,437.5C428.75,452.375 440.125,463.75 455,463.75C469.875,463.75 481.25,452.375 481.25,437.5C481.25,422.625 469.875,411.25 455,411.25Z" style="fill-rule:nonzero;"/>
        </g>
        <g transform="matrix(1,0,0,1,2.19,70.0025)">
            <path d="M393.75,323.75C388.5,323.75 385,320.25 385,315L385,218.75C385,213.5 388.5,210 393.75,210C399,210 402.5,213.5 402.5,218.75L402.5,315C402.5,320.25 399,323.75 393.75,323.75Z" style="fill-rule:nonzero;"/>
        </g>
        <g transform="matrix(1,0,0,1,2.19,70.0025)">
            <path d="M437.5,323.75L435.75,323.75C431.375,322.875 427.875,318.5 428.75,313.25L446.25,217C447.125,212.625 451.5,209.125 456.75,210C461.125,210.875 464.625,215.25 463.75,220.5L446.25,316.75C445.375,321.125 441.875,323.75 437.5,323.75Z" style="fill-rule:nonzero;"/>
        </g>
        <g transform="matrix(1,0,0,1,2.19,70.0025)">
            <path d="M350,323.75C345.625,323.75 342.125,321.125 341.25,316.75L323.75,220.5C322.875,216.125 326.375,210.875 330.75,210C335.125,209.125 340.375,212.625 341.25,217L358.75,313.25C359.625,317.625 356.125,322.875 351.75,323.75L350,323.75Z" style="fill-rule:nonzero;"/>
        </g>
    </g>
</svg>
