<?xml version="1.0" encoding="UTF-8" standalone="no"?>
<!DOCTYPE svg PUBLIC "-//W3C//DTD SVG 1.1//EN" "http://www.w3.org/Graphics/SVG/1.1/DTD/svg11.dtd">
<svg width="100%" height="100%" viewBox="0 0 700 500" version="1.1" xmlns="http://www.w3.org/2000/svg" xmlns:xlink="http://www.w3.org/1999/xlink" xml:space="preserve" xmlns:serif="http://www.serif.com/" style="fill-rule:evenodd;clip-rule:evenodd;stroke-linejoin:round;stroke-miterlimit:2;">
    <g transform="matrix(1,0,0,1,0,-38.325)">
        <path d="M700,492.8C700,516.05 681.039,535.015 657.773,535.015L42.223,535.015C18.961,535.015 -0.004,516.054 -0.004,492.8L-0.004,83.85C-0.004,60.6 18.957,41.635 42.223,41.635L657.773,41.635C681.035,41.635 700,60.596 700,83.85L700,492.8ZM664.145,444.355L35.861,444.355L35.861,492.8C35.861,496.257 38.759,499.156 42.228,499.156L657.778,499.156C661.247,499.156 664.145,496.257 664.145,492.8L664.145,444.355ZM35.857,308.355L664.141,308.355L664.141,83.855C664.141,80.398 661.243,77.5 657.774,77.5L42.224,77.5C38.755,77.5 35.857,80.398 35.857,83.855L35.857,308.355Z"/>
    </g>
</svg>
