<?xml version="1.0" encoding="UTF-8" standalone="no"?>
<!DOCTYPE svg PUBLIC "-//W3C//DTD SVG 1.1//EN" "http://www.w3.org/Graphics/SVG/1.1/DTD/svg11.dtd">
<svg width="100%" height="100%" viewBox="0 0 700 700" version="1.1" xmlns="http://www.w3.org/2000/svg" xmlns:xlink="http://www.w3.org/1999/xlink" xml:space="preserve" xmlns:serif="http://www.serif.com/" style="fill-rule:evenodd;clip-rule:evenodd;stroke-linejoin:round;stroke-miterlimit:2;">
    <g transform="matrix(1.43851,0,0,1.43851,-153.489,-52.7578)">
        <g transform="matrix(0.777553,0,0,0.777553,45.462,29.886)">
            <path d="M547.78,337.82C543.327,337.82 539.518,334.445 539.081,329.922L537.659,315.41C537.186,310.597 540.706,306.32 545.51,305.847C550.405,305.371 554.604,308.894 555.073,313.699L556.495,328.211C556.999,333.289 552.87,337.82 547.78,337.82L547.78,337.82Z" style="fill-rule:nonzero;"/>
        </g>
        <g transform="matrix(0.777553,0,0,0.777553,45.462,29.886)">
            <path d="M480.67,446.19L468.092,446.19C468.436,442.405 468.631,438.6 468.631,434.792C468.631,370.397 419.49,317.512 357.411,312.902L357.411,292.988C357.411,288.16 353.489,284.238 348.661,284.238C343.833,284.238 339.911,288.16 339.911,292.988L339.911,312.894C277.774,317.449 228.571,370.363 228.571,434.804C228.571,438.698 228.755,442.476 229.091,446.202L216.653,446.198C211.824,446.198 207.903,450.12 207.903,454.948C207.903,459.776 211.824,463.698 216.653,463.698L480.673,463.698C485.501,463.698 489.423,459.776 489.423,454.948C489.423,450.12 485.505,446.198 480.669,446.198L480.67,446.19ZM246.07,434.795C246.07,377.033 292.066,330.035 348.6,330.035C405.139,330.035 451.13,377.031 451.13,434.795C451.13,438.608 450.923,442.416 450.525,446.193L246.645,446.189C246.25,442.502 246.062,438.767 246.062,434.794L246.07,434.795Z" style="fill-rule:nonzero;"/>
        </g>
        <g transform="matrix(1.17571,0,0,1.17571,82.9468,49.7399)">
            <path d="M337.81,370.21L323.287,360.069C319.322,357.303 318.353,351.85 321.123,347.889C323.888,343.924 329.342,342.951 333.303,345.725L341.651,351.553L365.46,326.401C368.784,322.893 374.323,322.745 377.827,326.065C381.334,329.385 381.487,334.924 378.163,338.432L349.171,369.057C346.307,371.51 342.342,372.897 337.812,370.209L337.81,370.21Z" style="fill-rule:nonzero;"/>
        </g>
        <g transform="matrix(1.08111,0,0,1.08111,221.522,-159.486)">
            <path d="M312.433,523.331C312.433,516.908 307.219,511.694 300.796,511.694L204.211,511.694C197.788,511.694 192.574,516.908 192.574,523.331L192.574,619.916C192.574,626.339 197.788,631.553 204.211,631.553L300.796,631.553C307.219,631.553 312.433,626.339 312.433,619.916L312.433,523.331ZM301.502,523.331L301.502,619.916C301.502,620.306 301.186,620.622 300.796,620.622C300.796,620.622 204.211,620.622 204.211,620.622C203.821,620.622 203.505,620.306 203.505,619.916L203.505,523.331C203.505,522.941 203.821,522.625 204.211,522.625C204.211,522.625 300.796,522.625 300.796,522.625C301.186,522.625 301.502,522.941 301.502,523.331Z"/>
        </g>
        <g transform="matrix(0.814785,0,0,0.814785,105.809,7.60144)">
            <path d="M397.535,553.395L397.535,536.702L60.401,536.702L95.603,178.351L173.155,178.351L173.155,206.644C161.189,210.301 152.455,221.443 152.455,234.591C152.455,250.706 165.566,263.816 181.681,263.816C197.796,263.816 210.907,250.706 210.907,234.591C210.907,221.32 202.001,210.1 189.856,206.551L189.852,178.35L330.039,178.35L330.039,206.643C318.073,210.3 309.339,221.442 309.339,234.59C309.339,250.705 322.45,263.815 338.565,263.815C354.68,263.815 367.791,250.705 367.791,234.59C367.791,221.319 358.885,210.099 346.74,206.55L346.743,178.349L424.296,178.349L436.475,302.304C436.926,306.892 440.952,310.314 445.6,309.796C450.193,309.349 453.544,305.26 453.093,300.671L440.177,169.177C439.755,164.901 436.166,161.64 431.867,161.64L346.741,161.64L346.741,116.303C346.741,71.845 307.808,35.683 259.948,35.683C212.087,35.683 173.151,71.846 173.151,116.303L173.151,161.643L88.035,161.643C83.741,161.643 80.144,164.902 79.726,169.181L42.885,544.232C42.654,546.577 43.422,548.907 45.006,550.659C46.591,552.4 48.838,553.395 51.194,553.395L397.535,553.395ZM453.321,473.877L470.101,473.877L459.678,367.779C459.227,363.191 455.205,359.847 450.552,360.287C445.96,360.734 442.608,364.823 443.059,369.412L453.321,473.877ZM194.295,234.606C194.295,241.469 188.629,247.053 181.67,247.053C174.71,247.053 169.044,241.473 169.044,234.606C169.044,227.743 174.71,222.159 181.67,222.159C188.629,222.159 194.295,227.74 194.295,234.606ZM351.183,234.606C351.183,241.469 345.52,247.053 338.557,247.053C331.594,247.053 325.932,241.473 325.932,234.606C325.932,227.743 331.594,222.159 338.557,222.159C345.525,222.159 351.183,227.74 351.183,234.606ZM189.848,116.32C189.848,81.074 221.295,52.401 259.945,52.401C298.594,52.401 330.037,81.075 330.037,116.32L330.037,161.661L189.85,161.661L189.848,116.32Z" style="fill-rule:nonzero;"/>
        </g>
    </g>
</svg>
